<svg xmlns="http://www.w3.org/2000/svg" viewBox="0 0 240 56" fill="none">
  <defs>
    <linearGradient id="ls-ld-p" x1="4" y1="4" x2="52" y2="52" gradientUnits="userSpaceOnUse">
      <stop offset="0%" stop-color="#10B981" />
      <stop offset="100%" stop-color="#059669" />
    </linearGradient>
    <linearGradient id="ls-ld-b" x1="12" y1="32" x2="44" y2="32" gradientUnits="userSpaceOnUse">
      <stop offset="0%" stop-color="#6EE7B7" />
      <stop offset="100%" stop-color="#34D399" />
    </linearGradient>
  </defs>
  <rect x="4" y="4" width="48" height="48" rx="14" fill="url(#ls-ld-p)" />
  <path d="M16 14C16 13.1 16.7 12.4 17.6 12.4H31.6L38 18.8V41.6C38 42.5 37.3 43.2 36.4 43.2H17.6C16.7 43.2 16 42.5 16 41.6V14Z" fill="#064E3B" fill-opacity="0.5" />
  <path d="M31.6 12.4V17.2C31.6 18.1 32.3 18.8 33.2 18.8H38L31.6 12.4Z" fill="#A7F3D0" fill-opacity="0.7" />
  <path d="M14 35C17.5 28 22.5 25 28 25C33.5 25 38.5 28 42 35" stroke="url(#ls-ld-b)" stroke-width="3.2" stroke-linecap="round" />
  <path d="M21 28L25.5 32.5L35 21.5" stroke="#FFFFFF" stroke-width="3.2" stroke-linecap="round" stroke-linejoin="round" />
  <circle cx="18" cy="18" r="2" fill="#A7F3D0" />
  <circle cx="38" cy="38" r="2" fill="#FDE68A" />
  <text x="64" y="32" font-family="Inter, -apple-system, BlinkMacSystemFont, 'Segoe UI', Roboto, sans-serif" font-size="22" font-weight="800" fill="#FFFFFF" letter-spacing="-0.5">Label<tspan fill="#34D399">Setu</tspan></text>
  <text x="65" y="45" font-family="Inter, -apple-system, BlinkMacSystemFont, 'Segoe UI', Roboto, sans-serif" font-size="9" font-weight="700" fill="#94A3B8" letter-spacing="1.2">LEGAL METROLOGY AI</text>
</svg>